<svg version="1.2" xmlns="http://www.w3.org/2000/svg" viewBox="0 -1 750 501" width="1440" height="962">
	<title>5127215</title>
	<style>
		.s0 { fill: #cab8f4 } 
		.s1 { fill: none;stroke: #cab8f4;stroke-miterlimit:10 } 
		.s2 { fill: #ece9ff } 
		.s3 { fill: #2a2a3f } 
		.s4 { fill: none;stroke: #ffffff;stroke-linecap: round;stroke-linejoin: round } 
		.s5 { fill: #000000 } 
		.s6 { fill: #464666 } 
		.s7 { fill: none;stroke: #000000;stroke-linecap: round;stroke-linejoin: round } 
		.s8 { fill: #62628e } 
		.s9 { fill: none;stroke: #2a2a3f;stroke-linecap: round;stroke-linejoin: round } 
		.s10 { fill: none;stroke: #6450bc;stroke-linecap: round;stroke-linejoin: round } 
		.s11 { fill: none;stroke: #290e66;stroke-linecap: round;stroke-linejoin: round } 
		.s12 { fill: #290e66 } 
		.s13 { fill: #ae9bea } 
		.s14 { fill: #9f9fc9 } 
		.s15 { opacity: .6;fill: #473d84 } 
		.s16 { fill: #473d84 } 
		.s17 { fill: none;stroke: #9f9fc9;stroke-miterlimit:10 } 
		.s18 { fill: none;stroke: #6969a3;stroke-linecap: round;stroke-linejoin: round } 
		.s19 { fill: #4109a5 } 
		.s20 { fill: #5526bc } 
		.s21 { fill: #190051 } 
		.s22 { opacity: .1;fill: #ffffff } 
		.s23 { fill: #c0b9ef } 
		.s24 { fill: #ffffff } 
		.s25 { fill: none;stroke: #ffffff;stroke-miterlimit:10;stroke-width: .6 } 
		.s26 { fill: #e5dcff } 
		.s27 { fill: none;stroke: #9989ce;stroke-linecap: round;stroke-linejoin: round } 
	</style>
	<g id="OBJECTS">
		<g id="&lt;Group&gt;">
			<path id="&lt;Path&gt;" fill-rule="evenodd" class="s0" d="m399.9 433.6c-3.8 0-6.9-3-6.9-6.8 0-3.8 3.1-6.9 6.9-6.9 3.8 0 6.8 3.1 6.8 6.9 0 3.8-3 6.8-6.8 6.8z"/>
			<path id="&lt;Path&gt;" fill-rule="evenodd" class="s0" d="m416.4 119.6c-3.8 0-6.8-3-6.8-6.8 0-3.8 3-6.9 6.8-6.9 3.8 0 6.9 3.1 6.9 6.9 0 3.8-3.1 6.8-6.9 6.8z"/>
			<path id="&lt;Path&gt;" fill-rule="evenodd" class="s0" d="m611.6 106.7c-2 0-3.5-1.6-3.5-3.5 0-1.9 1.5-3.5 3.5-3.5 1.9 0 3.4 1.6 3.4 3.5 0 1.9-1.5 3.5-3.4 3.5z"/>
			<path id="&lt;Path&gt;" fill-rule="evenodd" class="s0" d="m309.7 78.8c-1.9 0-3.4-1.5-3.4-3.5 0-1.9 1.5-3.4 3.4-3.4 2 0 3.5 1.5 3.5 3.4 0 2-1.5 3.5-3.5 3.5z"/>
			<path id="&lt;Path&gt;" fill-rule="evenodd" class="s0" d="m588.5 347.9c-2 0-3.5-1.5-3.5-3.4 0-1.9 1.5-3.5 3.5-3.5 1.9 0 3.4 1.6 3.4 3.5 0 1.9-1.5 3.4-3.4 3.4z"/>
			<path id="&lt;Path&gt;" fill-rule="evenodd" class="s0" d="m198.7 347.9c-1.9 0-3.5-1.5-3.5-3.4 0-1.9 1.6-3.5 3.5-3.5 1.9 0 3.5 1.6 3.5 3.5 0 1.9-1.6 3.4-3.5 3.4z"/>
			<path id="&lt;Path&gt;" fill-rule="evenodd" class="s0" d="m207.8 161.1c-1.9 0-3.4-1.5-3.4-3.5 0-1.9 1.5-3.4 3.4-3.4 1.9 0 3.5 1.5 3.5 3.4 0 2-1.6 3.5-3.5 3.5z"/>
			<path id="&lt;Path&gt;" fill-rule="evenodd" class="s0" d="m198.7 442c-1.9 0-3.5-1.5-3.5-3.5 0-1.9 1.6-3.4 3.5-3.4 1.9 0 3.5 1.5 3.5 3.4 0 2-1.6 3.5-3.5 3.5z"/>
			<path id="&lt;Path&gt;" fill-rule="evenodd" class="s1" d="m527.9 118c-6.2 0-11.3-5-11.3-11.3 0-6.3 5.1-11.3 11.3-11.3 6.3 0 11.4 5 11.4 11.3 0 6.3-5.1 11.3-11.4 11.3z"/>
			<path id="&lt;Path&gt;" fill-rule="evenodd" class="s1" d="m587.9 163c-3.7 0-6.6-3-6.6-6.7 0-3.6 2.9-6.6 6.6-6.6 3.7 0 6.7 3 6.7 6.6 0 3.7-3 6.7-6.7 6.7z"/>
			<path id="&lt;Path&gt;" fill-rule="evenodd" class="s1" d="m589.5 435.8c-7.1 0-12.9-5.8-12.9-12.9 0-7.2 5.8-12.9 12.9-12.9 7.1 0 12.9 5.7 12.9 12.9 0 7.1-5.8 12.9-12.9 12.9z"/>
			<path id="&lt;Path&gt;" fill-rule="evenodd" class="s1" d="m112.3 438.7c-3.6 0-6.6-3-6.6-6.7 0-3.7 3-6.6 6.6-6.6 3.7 0 6.7 2.9 6.7 6.6 0 3.7-3 6.7-6.7 6.7z"/>
			<path id="&lt;Path&gt;" fill-rule="evenodd" class="s1" d="m152 420.7c-8.8 0-15.9-7.1-15.9-15.9 0-8.8 7.1-15.9 15.9-15.9 8.8 0 15.9 7.1 15.9 15.9 0 8.8-7.1 15.9-15.9 15.9z"/>
			<path id="&lt;Path&gt;" fill-rule="evenodd" class="s0" d="m457.8 440.9c-8.8 0-16-7.1-16-16 0-8.8 7.2-16 16-16 8.8 0 16 7.2 16 16 0 8.9-7.2 16-16 16z"/>
			<path id="&lt;Path&gt;" fill-rule="evenodd" class="s2" d="m524.4 55.5c-8.8 0-16-7.1-16-16 0-8.8 7.2-16 16-16 8.9 0 16 7.2 16 16 0 8.9-7.1 16-16 16z"/>
			<path id="&lt;Path&gt;" fill-rule="evenodd" class="s1" d="m396.7 51.3c-4.3 0-7.8-3.5-7.8-7.9 0-4.3 3.5-7.8 7.8-7.8 4.4 0 7.9 3.5 7.9 7.8 0 4.4-3.5 7.9-7.9 7.9z"/>
		</g>
		<g id="&lt;Group&gt;">
			<path id="&lt;Path&gt;" fill-rule="evenodd" class="s3" d="m491.4 105.1l-41.2 11.9c-6.2 1.8-12.6-1.7-14.4-7.9l-7.5-25.6 63.7-18.4 7.4 25.5c1.8 6.2-1.8 12.7-8 14.5z"/>
			<g id="&lt;Group&gt;">
				<path id="&lt;Path&gt;" fill-rule="evenodd" class="s4" d="m441.3 88.2l43.3-12.2"/>
				<path id="&lt;Path&gt;" fill-rule="evenodd" class="s4" d="m480.2 84.7l6.1-1.7"/>
				<path id="&lt;Path&gt;" fill-rule="evenodd" class="s4" d="m443 95.2l30.2-8.5"/>
				<path id="&lt;Path&gt;" fill-rule="evenodd" class="s4" d="m445.8 103.5l18.3-5.5"/>
			</g>
			<g id="&lt;Group&gt;">
				<g id="&lt;Group&gt;">
					<path id="&lt;Path&gt;" fill-rule="evenodd" class="s5" d="m494.2 64.4l-68.1 19.8-3.2-10.9 68.1-19.8z"/>
					<path id="&lt;Path&gt;" fill-rule="evenodd" class="s6" d="m426.1 84.2c1.4-4.2 2.8-8.9 4.2-13.1l5-1.4c-1.7 4.4-2.9 8.4-4 13 0 0-3.7 1.1-5.2 1.5z"/>
					<path id="&lt;Path&gt;" fill-rule="evenodd" class="s6" d="m438.1 80.7c1.4-4.2 2.8-8.8 4.1-13l5-1.5c-1.7 4.4-3 8.4-4.1 13.1z"/>
					<path id="&lt;Path&gt;" fill-rule="evenodd" class="s6" d="m451.8 76.7c1.4-4.2 2.9-8.8 4.2-13l5.4-1.6c-1.7 4.4-3.1 8.5-4.2 13.1z"/>
					<path id="&lt;Path&gt;" fill-rule="evenodd" class="s6" d="m465.6 72.8c1.3-4.2 2.8-9 4.2-13.2 0 0 4.9-1.3 5-1.4-1.8 4.4-3.1 8.5-4.3 13.1 0 0-4.9 1.4-4.9 1.5z"/>
					<path id="&lt;Path&gt;" fill-rule="evenodd" class="s6" d="m478.8 68.9c1.4-4.2 2.8-8.9 4.2-13.1l5-1.4-4.3 13.1z"/>
				</g>
				<g id="&lt;Group&gt;">
					<path id="&lt;Path&gt;" fill-rule="evenodd" class="s5" d="m481.4 33.4l-58.4 40.2-6.4-9.4 58.4-40.2z"/>
					<path id="&lt;Path&gt;" fill-rule="evenodd" class="s6" d="m423 73.6c0-4.4-0.1-9.3-0.1-13.7l4.3-3c-0.3 4.8-0.1 8.9 0.2 13.7 0 0-3.1 2.1-4.4 3z"/>
					<path id="&lt;Path&gt;" fill-rule="evenodd" class="s6" d="m433.3 66.5c0-4.4-0.2-9.2-0.2-13.7l4.3-2.9c-0.3 4.7-0.2 8.9 0.2 13.7z"/>
					<path id="&lt;Path&gt;" fill-rule="evenodd" class="s6" d="m445.1 58.4c0-4.4-0.1-9.3-0.1-13.7l4.5-3.2c-0.2 4.7-0.2 9 0.1 13.8z"/>
					<path id="&lt;Path&gt;" fill-rule="evenodd" class="s6" d="m456.9 50.3c-0.1-4.4-0.2-9.4-0.2-13.8 0 0 4.3-2.8 4.3-2.9-0.2 4.7-0.3 9 0.1 13.8 0 0-4.3 2.9-4.2 2.9z"/>
					<path id="&lt;Path&gt;" fill-rule="evenodd" class="s6" d="m468.2 42.5c0-4.4-0.1-9.3-0.1-13.7l4.3-3v13.8z"/>
				</g>
			</g>
			<g id="&lt;Group&gt;">
				<path id="&lt;Path&gt;" fill-rule="evenodd" class="s7" d="m440.9 110.4c2.4 2.6 6.2 3.7 9.6 3"/>
				<path id="&lt;Path&gt;" fill-rule="evenodd" class="s7" d="m457.7 110.5q8.2-2.4 16.3-4.8"/>
			</g>
		</g>
		<g id="&lt;Group&gt;">
			<g id="&lt;Group&gt;">
				<path id="&lt;Path&gt;" fill-rule="evenodd" class="s3" d="m586.6 128.4l-31.6-8.2 20.1-77.7 31.6 8.2z"/>
				<path id="&lt;Path&gt;" fill-rule="evenodd" class="s8" d="m595 67.7l-17.9-4.7 4.1-15.8 17.9 4.6z"/>
				<path id="&lt;Path&gt;" fill-rule="evenodd" class="s8" d="m590.2 86.4l-18-4.6 4.1-15.9 18 4.7z"/>
				<path id="&lt;Path&gt;" fill-rule="evenodd" class="s8" d="m585.4 104.8l-17.9-4.7 4.1-15.8 17.9 4.6z"/>
				<path id="&lt;Path&gt;" fill-rule="evenodd" class="s8" d="m580.5 123.5l-17.9-4.6 4.1-15.9 17.9 4.7z"/>
				<g id="&lt;Group&gt;">
					<path id="&lt;Path&gt;" fill-rule="evenodd" class="s8" d="m603 56.4l-2.8-0.7 0.8-2.7 2.7 0.7z"/>
					<path id="&lt;Path&gt;" fill-rule="evenodd" class="s8" d="m601.8 61l-2.7-0.8 0.7-2.7 2.7 0.7z"/>
					<path id="&lt;Path&gt;" fill-rule="evenodd" class="s8" d="m600.6 65.5l-2.7-0.7 0.7-2.8 2.7 0.7z"/>
					<path id="&lt;Path&gt;" fill-rule="evenodd" class="s8" d="m599.5 70l-2.8-0.7 0.7-2.8 2.8 0.8z"/>
					<path id="&lt;Path&gt;" fill-rule="evenodd" class="s8" d="m598.3 74.5l-2.8-0.7 0.8-2.7 2.7 0.7z"/>
					<path id="&lt;Path&gt;" fill-rule="evenodd" class="s8" d="m597.1 79l-2.7-0.7 0.7-2.7 2.7 0.7z"/>
					<path id="&lt;Path&gt;" fill-rule="evenodd" class="s8" d="m595.9 83.6l-2.7-0.7 0.7-2.8 2.8 0.7z"/>
					<path id="&lt;Path&gt;" fill-rule="evenodd" class="s8" d="m594.8 88.1l-2.8-0.7 0.7-2.8 2.8 0.7z"/>
					<path id="&lt;Path&gt;" fill-rule="evenodd" class="s8" d="m593.6 92.6l-2.7-0.7 0.7-2.7 2.7 0.7z"/>
					<path id="&lt;Path&gt;" fill-rule="evenodd" class="s8" d="m592.4 97.1l-2.7-0.7 0.7-2.7 2.7 0.7z"/>
					<path id="&lt;Path&gt;" fill-rule="evenodd" class="s8" d="m591.3 101.6l-2.8-0.7 0.7-2.7 2.8 0.7z"/>
					<path id="&lt;Path&gt;" fill-rule="evenodd" class="s8" d="m590.1 106.2l-2.8-0.7 0.7-2.8 2.8 0.7z"/>
					<path id="&lt;Path&gt;" fill-rule="evenodd" class="s8" d="m588.9 110.7l-2.7-0.7 0.7-2.8 2.7 0.7z"/>
					<path id="&lt;Path&gt;" fill-rule="evenodd" class="s8" d="m587.7 115.2l-2.7-0.7 0.7-2.7 2.7 0.7z"/>
					<path id="&lt;Path&gt;" fill-rule="evenodd" class="s8" d="m586.6 119.7l-2.8-0.7 0.7-2.7 2.8 0.7z"/>
					<path id="&lt;Path&gt;" fill-rule="evenodd" class="s8" d="m585.4 124.3l-2.8-0.8 0.8-2.7 2.7 0.7z"/>
				</g>
				<g id="&lt;Group&gt;">
					<path id="&lt;Path&gt;" fill-rule="evenodd" class="s8" d="m578.2 50l-2.8-0.7 0.7-2.8 2.8 0.8z"/>
					<path id="&lt;Path&gt;" fill-rule="evenodd" class="s8" d="m577 54.5l-2.7-0.7 0.7-2.7 2.7 0.7z"/>
					<path id="&lt;Path&gt;" fill-rule="evenodd" class="s8" d="m575.8 59l-2.7-0.7 0.7-2.7 2.7 0.7z"/>
					<path id="&lt;Path&gt;" fill-rule="evenodd" class="s8" d="m574.6 63.6l-2.7-0.8 0.7-2.7 2.8 0.7z"/>
					<path id="&lt;Path&gt;" fill-rule="evenodd" class="s8" d="m573.5 68.1l-2.8-0.7 0.7-2.8 2.8 0.7z"/>
					<path id="&lt;Path&gt;" fill-rule="evenodd" class="s8" d="m572.3 72.6l-2.7-0.7 0.7-2.7 2.7 0.7z"/>
					<path id="&lt;Path&gt;" fill-rule="evenodd" class="s8" d="m571.1 77.1l-2.7-0.7 0.7-2.7 2.7 0.7z"/>
					<path id="&lt;Path&gt;" fill-rule="evenodd" class="s8" d="m570 81.6l-2.8-0.7 0.7-2.7 2.8 0.7z"/>
					<path id="&lt;Path&gt;" fill-rule="evenodd" class="s8" d="m568.8 86.2l-2.8-0.7 0.7-2.8 2.8 0.7z"/>
					<path id="&lt;Path&gt;" fill-rule="evenodd" class="s8" d="m567.6 90.7l-2.7-0.7 0.7-2.8 2.7 0.7z"/>
					<path id="&lt;Path&gt;" fill-rule="evenodd" class="s8" d="m566.4 95.2l-2.7-0.7 0.7-2.7 2.7 0.7z"/>
					<path id="&lt;Path&gt;" fill-rule="evenodd" class="s8" d="m565.3 99.7l-2.8-0.7 0.7-2.7 2.8 0.7z"/>
					<path id="&lt;Path&gt;" fill-rule="evenodd" class="s8" d="m564.1 104.2l-2.8-0.7 0.8-2.7 2.7 0.7z"/>
					<path id="&lt;Path&gt;" fill-rule="evenodd" class="s8" d="m562.9 108.8l-2.7-0.7 0.7-2.8 2.7 0.7z"/>
					<path id="&lt;Path&gt;" fill-rule="evenodd" class="s8" d="m561.7 113.3l-2.7-0.7 0.7-2.8 2.8 0.8z"/>
					<path id="&lt;Path&gt;" fill-rule="evenodd" class="s8" d="m560.6 117.8l-2.8-0.7 0.7-2.7 2.8 0.7z"/>
				</g>
			</g>
			<path id="&lt;Path&gt;" fill-rule="evenodd" class="s9" d="m583.6 54.4q2.4 3.5 4.8 7"/>
			<path id="&lt;Path&gt;" fill-rule="evenodd" class="s9" d="m588.4 53.6q1.3 2.2 2.6 4.3"/>
			<path id="&lt;Path&gt;" fill-rule="evenodd" class="s9" d="m574.5 92.3c0.9 2.2 2.1 4.2 3.5 6.1"/>
			<path id="&lt;Path&gt;" fill-rule="evenodd" class="s9" d="m578.5 91.9q2.2 4.1 4.4 8.2"/>
		</g>
		<g id="&lt;Group&gt;">
			<g id="&lt;Group&gt;">
				<g id="&lt;Group&gt;">
					<path id="&lt;Path&gt;" fill-rule="evenodd" class="s0" d="m207.4 230.5c-20.5-9.7-36.2-18-63.3-25.3 2.7 10.1 6.3 20.8 10.6 31.5 1.5-1 3.2-1.4 5.1-1.3 4.6 0.3 8.1 4.4 7.7 9-0.3 3.6-2.8 6.5-6.2 7.4 8.4 17.8 18.6 34.8 30.3 48.3 22 25.3 53.8 39.8 87 35.5-5.2-43.3-31.7-86.6-71.2-105.1z"/>
					<path id="&lt;Path&gt;" fill-rule="evenodd" class="s10" d="m145.1 206.8c37 28.7 77.7 63.1 105.7 101.9"/>
					<path id="&lt;Path&gt;" fill-rule="evenodd" class="s10" d="m172.3 235.5q10.6 8.3 21.1 16.6"/>
					<path id="&lt;Path&gt;" fill-rule="evenodd" class="s10" d="m149.5 219.4q7.5 1.2 14.9 2.4"/>
					<path id="&lt;Path&gt;" fill-rule="evenodd" class="s10" d="m180.4 218.5q2.5 10.4 5 20.7"/>
					<path id="&lt;Path&gt;" fill-rule="evenodd" class="s10" d="m187.2 221.7q2.2 11 4.3 21.9"/>
					<path id="&lt;Path&gt;" fill-rule="evenodd" class="s10" d="m168.5 263.3q20.1-1.5 40.2-3.1c-1-9.7-1.5-19-3-28.6"/>
					<path id="&lt;Path&gt;" fill-rule="evenodd" class="s10" d="m183.4 289.7q24.1-1.7 48.1-3.4c0.1-13.5 1-25.2 1.1-38.7"/>
					<path id="&lt;Path&gt;" fill-rule="evenodd" class="s10" d="m207.3 295.6l30.8-2.6"/>
				</g>
				<g id="&lt;Group&gt;">
					<path id="&lt;Path&gt;" fill-rule="evenodd" class="s11" d="m252.6 319.1c-18.2-33.2-30.5-69.6-36.1-107.1"/>
					<path id="&lt;Path&gt;" fill-rule="evenodd" class="s12" d="m216.9 197.9c-2.2 1.6-3.4 4.4-3.3 7.1 0 2.7 1.1 5.3 2.7 7.4 3.2-3.8 2.9-10 0.6-14.5z"/>
					<path id="&lt;Path&gt;" fill-rule="evenodd" class="s12" d="m206.2 210.4c0 2.8 1.5 5.3 3.7 6.9 2.2 1.6 5 2.2 7.7 2.1-1.3-4.7-6.5-8.2-11.4-9z"/>
					<path id="&lt;Path&gt;" fill-rule="evenodd" class="s12" d="m227.3 211.5c-4.3-0.1-8.6 3.1-9.6 7.4 1 0.5 2.4-0.1 3.5-0.5 1.7-0.6 3.5-1.2 4.9-2.3 1.4-1.1 1.3-2.8 1.2-4.6z"/>
					<path id="&lt;Path&gt;" fill-rule="evenodd" class="s12" d="m231.3 220.5c-2.9 0.1-5.7 1.4-7.7 3.5-2.1 2-3.2 4.9-3.2 7.8 5.4-1.8 9.5-5.7 10.9-11.3z"/>
					<path id="&lt;Path&gt;" fill-rule="evenodd" class="s12" d="m219.9 231.5c-2 0.3-4.1 0.5-6.1 0.1-3.4-0.7-6.1-3.3-8.2-6 5.7-0.8 11 1.1 14.3 5.9z"/>
					<path id="&lt;Path&gt;" fill-rule="evenodd" class="s12" d="m232.9 233.7c-1 0-1.9 0.6-2.7 1.3-1.8 1.3-3.6 2.8-4.8 4.7-1.2 1.9-1.8 4.3-1.3 6.4 3.2-0.9 5.2-3.1 7.1-5.9 1.4-2 1.8-4.1 1.7-6.5z"/>
					<path id="&lt;Path&gt;" fill-rule="evenodd" class="s12" d="m223.3 245.8c-5.4 1.4-11.7-1.2-14.5-6.1 5.9-0.7 10.9 1.4 14.5 6.1z"/>
					<path id="&lt;Path&gt;" fill-rule="evenodd" class="s12" d="m238.3 245.4c-6 0.6-11.1 6-11.4 12 3.2-0.4 6.4-1.1 8.4-3.5 2-2.4 3.2-5.4 3-8.5z"/>
					<path id="&lt;Path&gt;" fill-rule="evenodd" class="s12" d="m227.1 256c-4.5 2.4-10.5 1.5-14-2.2 5.3-2.2 9.9-2 14 2.2z"/>
					<path id="&lt;Path&gt;" fill-rule="evenodd" class="s12" d="m239.3 258.6c-4.8 1.2-8.6 6-8.5 11 4.7-2 8.2-5.9 8.5-11z"/>
					<path id="&lt;Path&gt;" fill-rule="evenodd" class="s12" d="m231.7 270c-5.2 1.7-11.2-0.7-13.9-5.4 5.1-0.9 10.3 1.6 13.9 5.4z"/>
					<path id="&lt;Path&gt;" fill-rule="evenodd" class="s12" d="m243.3 269.2c-4.7 1.2-8.5 5.4-9 10.2 5.5-0.6 9.1-4.6 9-10.2z"/>
					<path id="&lt;Path&gt;" fill-rule="evenodd" class="s12" d="m235.6 281.7c-0.5 0.7-1.5 0.8-2.3 0.7-4.5-0.3-8.8-2.4-11.8-5.8 5-1.8 11.2 0.6 14.1 5.1z"/>
					<path id="&lt;Path&gt;" fill-rule="evenodd" class="s12" d="m246.3 278.4c-4.9 2.9-7.4 9.3-5.8 14.7 2.5-1.1 4.3-2.2 5.4-4.7 1.1-2.6-0.1-7.3 0.4-10z"/>
					<path id="&lt;Path&gt;" fill-rule="evenodd" class="s12" d="m239.9 293.3c-3.4-4.8-10.9-6.1-15.8-2.8 4.4 4.9 10.8 7.1 15.8 2.8z"/>
					<path id="&lt;Path&gt;" fill-rule="evenodd" class="s12" d="m248.3 310.1c-6.2 2.6-13.9 0.7-18.2-4.4 6.5-2.3 13.8-0.9 18.2 4.4z"/>
				</g>
			</g>
			<g id="&lt;Group&gt;">
				<g id="&lt;Group&gt;">
					<path id="&lt;Path&gt;" fill-rule="evenodd" class="s0" d="m608 178.1c-22.6 11.8-40.9 25.1-59.2 38.3-35.3 25.6-51.7 71.3-48.7 114.9 33.5-2 61.9-22.2 78.8-51.2 16.9-28.9 30.9-68.9 29.1-102z"/>
					<path id="&lt;Path&gt;" fill-rule="evenodd" class="s10" d="m528.1 286.3c23.9-37.7 52.3-73.1 79.9-108.2"/>
					<path id="&lt;Path&gt;" fill-rule="evenodd" class="s10" d="m572.7 222.7q-1.5-10.3-2-20.6"/>
					<path id="&lt;Path&gt;" fill-rule="evenodd" class="s10" d="m577.2 217.4q-0.9-9.8-1.1-19.6"/>
					<path id="&lt;Path&gt;" fill-rule="evenodd" class="s10" d="m561 238.6c12.2-3.3 26-6.1 38.6-7.8"/>
					<path id="&lt;Path&gt;" fill-rule="evenodd" class="s10" d="m593.7 196.8q6.7-1.5 13.5-3.1"/>
					<path id="&lt;Path&gt;" fill-rule="evenodd" class="s10" d="m540.5 224.3c0.8 11.6 3.9 23.9 5.3 35.5 15.1-3.3 29.8-4.3 45.3-3.1"/>
					<path id="&lt;Path&gt;" fill-rule="evenodd" class="s10" d="m534.8 231.7c0.8 11.6 3.9 23.9 5.3 35.5 15.2-3.3 29.9-4.3 45.3-3.1"/>
					<path id="&lt;Path&gt;" fill-rule="evenodd" class="s10" d="m574.8 276.8c10.2-19.4 19.1-39.5 26.6-60.1"/>
					<path id="&lt;Path&gt;" fill-rule="evenodd" class="s10" d="m602 213.2c0.8-1.3 1.4-2.8 1.5-4.3"/>
				</g>
				<g id="&lt;Group&gt;">
					<path id="&lt;Path&gt;" fill-rule="evenodd" class="s13" d="m589.3 271.3c-17.5 1.9-34.4 9.1-47.8 20.4-8.6 7.4-16.1 16.9-18 28.1 15.6 3.3 31.2 0.3 44.4-8.6 13.2-9 18.6-24.1 21.4-39.9z"/>
					<path id="&lt;Path&gt;" fill-rule="evenodd" class="s10" d="m523.9 319.1c19.9-17.5 42.7-34 65.4-47.8"/>
					<path id="&lt;Path&gt;" fill-rule="evenodd" class="s10" d="m570.2 284q7.6 0.3 15.2 1.3"/>
					<path id="&lt;Path&gt;" fill-rule="evenodd" class="s10" d="m566.6 277.4q-2.6 5.5-4.6 11.3c6.6 1.2 13.7 3.1 20.3 4.5"/>
					<path id="&lt;Path&gt;" fill-rule="evenodd" class="s10" d="m551.8 285.6q-2.1 6.4-4.1 12.8c8.3 2.4 16.2 5 24.1 8.3"/>
					<path id="&lt;Path&gt;" fill-rule="evenodd" class="s10" d="m537.1 308.2q11.3 3.2 22.7 6.5"/>
				</g>
				<g id="&lt;Group&gt;">
					<path id="&lt;Path&gt;" fill-rule="evenodd" class="s11" d="m524.7 322.1c13.7-47.7 26.3-104.1 31-153.5"/>
					<path id="&lt;Path&gt;" fill-rule="evenodd" class="s12" d="m559.9 140.5c-6.9 7.3-8.8 18.9-4.6 28 6.3-7.1 8.6-19.4 4.6-28z"/>
					<path id="&lt;Path&gt;" fill-rule="evenodd" class="s12" d="m570.9 156.6c-7.2 0-14.1 5.7-15.4 12.8 3.9 0.5 8-0.3 11.1-2.8 3-2.4 3.9-6.1 4.3-10z"/>
					<path id="&lt;Path&gt;" fill-rule="evenodd" class="s12" d="m553.5 186.2c-7.8-2.7-13.5-11.2-13.4-20 7.9 2.7 12.7 11.2 13.4 20z"/>
					<path id="&lt;Path&gt;" fill-rule="evenodd" class="s12" d="m571 175c-7 0.3-13.6 4.3-17.2 10.3 7.2 1 13.6-4 17.2-10.3z"/>
					<path id="&lt;Path&gt;" fill-rule="evenodd" class="s12" d="m533.6 288c-7.8-2.8-13.5-11.3-13.4-20.1 7.9 2.8 12.7 11.2 13.4 20.1z"/>
					<path id="&lt;Path&gt;" fill-rule="evenodd" class="s12" d="m551.1 276.8c-7 0.3-13.6 4.3-17.2 10.3 7.2 0.9 13.6-4.1 17.2-10.3z"/>
					<path id="&lt;Path&gt;" fill-rule="evenodd" class="s12" d="m528.7 306.6c-7.8-2.7-13.5-11.2-13.4-20 7.9 2.7 12.7 11.2 13.4 20z"/>
					<path id="&lt;Path&gt;" fill-rule="evenodd" class="s12" d="m546.2 295.4c-7 0.3-13.6 4.3-17.2 10.3 7.2 1 13.6-4 17.2-10.3z"/>
					<path id="&lt;Path&gt;" fill-rule="evenodd" class="s12" d="m551.4 201.5c-7-1.5-12.8-7.5-14.1-14.5 6.8 2.2 12.7 7.5 14.1 14.5z"/>
					<path id="&lt;Path&gt;" fill-rule="evenodd" class="s12" d="m570 194.4c-3.3-1.5-7.2-1.7-10.7-0.5-3.4 1.3-6.3 3.9-7.9 7.2 3.6 1.8 7.2 2.1 10.9 0.5 3.8-1.6 5.2-4 7.7-7.2z"/>
					<path id="&lt;Path&gt;" fill-rule="evenodd" class="s12" d="m548.4 217.7c-6.8-1.2-12.5-7.3-13.2-14.2 3.8-0.9 7.6 0.4 9.8 3.8 2.2 3.3 2.7 6.5 3.4 10.4z"/>
					<path id="&lt;Path&gt;" fill-rule="evenodd" class="s12" d="m568.4 211.8c-2.8-2.5-7.1-2.7-10.6-1.4-3.5 1.4-6.3 4.2-8.6 7.1 3.4 1.5 7 2.1 10.5 0.9 3.6-1.3 7-3.2 8.7-6.6z"/>
					<path id="&lt;Path&gt;" fill-rule="evenodd" class="s12" d="m546 230.8c-0.9 1-2.6 0.6-3.8 0-5.1-2.6-8.8-7.6-9.9-13.2 3.7-0.2 7.1 1.8 9.3 4.8 2.1 2.9 3 5.1 4.4 8.4z"/>
					<path id="&lt;Path&gt;" fill-rule="evenodd" class="s12" d="m565 225.2c-3.1-0.1-6.3-0.2-9.2 0.7-4.5 1.4-8.1 5-10 9.2 5.3 0.7 10.7-0.5 14.9-3.9 1.1-0.9 2.1-2 3.1-3 0.4-0.4 1.3-2.5 1.2-3z"/>
					<path id="&lt;Path&gt;" fill-rule="evenodd" class="s12" d="m541.7 252.4c-8.3-1.9-14.4-10.5-13.4-18.9 7.5 3.8 11.5 10.6 13.4 18.9z"/>
					<path id="&lt;Path&gt;" fill-rule="evenodd" class="s12" d="m562.2 241c-8.2-1.2-17 4-19.9 11.8 8.8 1.9 16.6-3.4 19.9-11.8z"/>
					<path id="&lt;Path&gt;" fill-rule="evenodd" class="s12" d="m538.2 269.8c-6.9-0.9-12.7-7-13.2-14 2.4 0.5 5.3 1 7.2 2.6 3.4 2.9 4.5 7.1 6 11.4z"/>
					<path id="&lt;Path&gt;" fill-rule="evenodd" class="s12" d="m559.7 257.9c-8.3-0.5-16.7 3.9-21 11 5.8 1 12.2-0.7 16.6-4.6 1.9-1.7 3.9-3.9 4.4-6.4z"/>
				</g>
			</g>
		</g>
		<g id="&lt;Group&gt;">
			<g id="&lt;Group&gt;">
				<g id="&lt;Group&gt;">
					<path id="&lt;Path&gt;" fill-rule="evenodd" class="s14" d="m208.7 382.3l41-58.9h279.8l41.2 58.9z"/>
					<path id="&lt;Path&gt;" fill-rule="evenodd" class="s15" d="m354.5 362.4h66.9l8.5 11.5-80.3 0.6z"/>
					<path id="&lt;Path&gt;" fill-rule="evenodd" class="s16" d="m208.7 382.3c0 8.5 5 15.7 11.2 15.7h339.6c6.2 0 11.2-7.2 11.2-15.7"/>
					<g id="&lt;Group&gt;">
						<path id="&lt;Path&gt;" fill-rule="evenodd" class="s15" d="m257.5 332.6h264l16.4 25.3h-296.3z"/>
						<path id="&lt;Path&gt;" fill-rule="evenodd" class="s17" d="m242.3 349.5h295.3"/>
						<path id="&lt;Path&gt;" fill-rule="evenodd" class="s17" d="m242.3 340.8h295.3"/>
					</g>
					<path id="&lt;Path&gt;" fill-rule="evenodd" class="s18" d="m556.2 377.6h-54.4"/>
					<path id="&lt;Path&gt;" fill-rule="evenodd" class="s18" d="m488.7 377.6h6.1"/>
					<path id="&lt;Path&gt;" fill-rule="evenodd" class="s18" d="m232.7 377.6h45.5"/>
				</g>
				<g id="&lt;Group&gt;">
					<path id="&lt;Path&gt;" fill-rule="evenodd" class="s5" d="m529.5 323.4h-279.4v-165.1c0-11.9 9.7-21.6 21.6-21.6h236.2c11.9 0 21.6 9.7 21.6 21.6z"/>
					<g id="&lt;Group&gt;">
						<path id="&lt;Path&gt;" fill-rule="evenodd" class="s19" d="m263.3 310.2v-151.9c0-4.6 3.8-8.4 8.4-8.4h236.2c4.6 0 8.3 3.8 8.3 8.4v151.9z"/>
						<g id="&lt;Group&gt;">
							<g id="&lt;Group&gt;">
								<path id="&lt;Path&gt;" fill-rule="evenodd" class="s20" d="m385.1 171.8v24.1h-95v-24.1z"/>
								<path id="&lt;Path&gt;" fill-rule="evenodd" class="s20" d="m323.5 215.5v31.9h-33.4v-31.9z"/>
								<path id="&lt;Path&gt;" fill-rule="evenodd" class="s20" d="m384.8 203.5v43.9h-47.9v-43.9z"/>
							</g>
							<g id="&lt;Group&gt;">
								<path id="&lt;Path&gt;" fill-rule="evenodd" class="s21" d="m501.3 171.8v78.8h-97.3v-78.8z"/>
								<path id="&lt;Path&gt;" fill-rule="evenodd" class="s0" d="m443.9 200.7v21l17.5-9.6z"/>
							</g>
							<g id="&lt;Group&gt;">
								<path id="&lt;Path&gt;" fill-rule="evenodd" class="s20" d="m313.7 261.7v9.1h-22.1v-9.1z"/>
								<path id="&lt;Path&gt;" fill-rule="evenodd" class="s20" d="m501.5 261.7v9.1h-182.7v-9.1z"/>
								<path id="&lt;Path&gt;" fill-rule="evenodd" class="s0" d="m364.3 261.7v9.1h-46.1v-9.1z"/>
							</g>
							<g id="&lt;Group&gt;">
								<path id="&lt;Path&gt;" fill-rule="evenodd" class="s20" d="m313.7 276v9h-22.1v-9z"/>
								<path id="&lt;Path&gt;" fill-rule="evenodd" class="s20" d="m501.5 276v9h-182.7v-9z"/>
								<path id="&lt;Path&gt;" fill-rule="evenodd" class="s0" d="m458.5 276v9h-103.3v-9z"/>
							</g>
							<g id="&lt;Group&gt;">
								<path id="&lt;Path&gt;" fill-rule="evenodd" class="s20" d="m313.7 290.3v9h-22.1v-9z"/>
								<path id="&lt;Path&gt;" fill-rule="evenodd" class="s20" d="m501.5 290.3v9h-182.7v-9z"/>
								<path id="&lt;Path&gt;" fill-rule="evenodd" class="s0" d="m431.2 290.3v9h-42.2v-9z"/>
							</g>
						</g>
					</g>
					<path id="&lt;Path&gt;" fill-rule="evenodd" class="s15" d="m389.8 145.9c-1.5 0-2.6-1.2-2.6-2.6 0-1.5 1.1-2.6 2.6-2.6 1.4 0 2.6 1.1 2.6 2.6 0 1.4-1.2 2.6-2.6 2.6z"/>
				</g>
			</g>
			<g id="&lt;Group&gt;">
				<path id="&lt;Path&gt;" fill-rule="evenodd" class="s22" d="m274.4 309.7l155.2-160.3 29.8 0.2c0 0-97.5 107.2-150.6 160.1z"/>
				<path id="&lt;Path&gt;" fill-rule="evenodd" class="s22" d="m316.7 309.7c55.4-53.9 99.9-106.3 155.3-160.3l7.9 0.2-150.5 160.1z"/>
			</g>
		</g>
		<g id="&lt;Group&gt;">
			<path id="&lt;Path&gt;" fill-rule="evenodd" class="s23" d="m381 212.6h-136.6c-6 0-10.8-4.8-10.8-10.8v-101.9c0-4.2 3.4-7.6 7.6-7.6h143c4.2 0 7.6 3.4 7.6 7.6v101.9c0 6-4.8 10.8-10.8 10.8z"/>
			<path id="&lt;Path&gt;" fill-rule="evenodd" class="s19" d="m391.8 106.7h-158.2v-6.8c0-4.2 3.4-7.6 7.6-7.6h143c4.2 0 7.6 3.4 7.6 7.6z"/>
			<g id="&lt;Group&gt;">
				<path id="&lt;Path&gt;" fill-rule="evenodd" class="s5" d="m242.4 101.4c-1 0-1.9-0.9-1.9-1.9 0-1 0.9-1.9 1.9-1.9 1 0 1.9 0.9 1.9 1.9 0 1-0.9 1.9-1.9 1.9z"/>
				<path id="&lt;Path&gt;" fill-rule="evenodd" class="s24" d="m251.8 101.4c-1 0-1.8-0.9-1.8-1.9 0-1 0.8-1.9 1.8-1.9 1.1 0 1.9 0.9 1.9 1.9 0 1-0.8 1.9-1.9 1.9z"/>
				<path id="&lt;Path&gt;" fill-rule="evenodd" class="s0" d="m262.1 101.4c-1.1 0-1.9-0.9-1.9-1.9 0-1 0.8-1.9 1.9-1.9 1 0 1.8 0.9 1.8 1.9 0 1-0.8 1.9-1.8 1.9z"/>
			</g>
			<g id="&lt;Group&gt;">
				<path id="&lt;Path&gt;" fill-rule="evenodd" class="s19" d="m249.6 193.8v9.3h-9.2v-9.3z"/>
				<g id="&lt;Group&gt;">
					<path id="&lt;Path&gt;" fill-rule="evenodd" class="s25" d="m243.9 200v-3.2"/>
					<path id="&lt;Path&gt;" fill-rule="evenodd" class="s25" d="m246.1 200v-3.2"/>
				</g>
			</g>
			<g id="&lt;Group&gt;">
				<path id="&lt;Path&gt;" fill-rule="evenodd" class="s26" d="m379.8 196.2v5.1h-127.3v-5.1z"/>
				<path id="&lt;Path&gt;" fill-rule="evenodd" class="s19" d="m305.4 196.2v5.1h-52.9v-5.1z"/>
			</g>
			<g id="&lt;Group&gt;">
				<g id="&lt;Group&gt;">
					<path id="&lt;Path&gt;" fill-rule="evenodd" class="s27" d="m388.5 121.1v41.4"/>
					<path id="&lt;Path&gt;" fill-rule="evenodd" class="s27" d="m388.5 112.6v4.1"/>
				</g>
				<path id="&lt;Path&gt;" fill-rule="evenodd" class="s27" d="m257.3 209.9h49.7"/>
			</g>
			<g id="&lt;Group&gt;">
				<g id="&lt;Group&gt;">
					<path id="&lt;Path&gt;" fill-rule="evenodd" class="s19" d="m314.6 177.4c-13.1 0-23.7-10.6-23.7-23.8 0-13.1 10.6-23.7 23.7-23.7 13.2 0 23.8 10.6 23.8 23.7 0 13.2-10.6 23.8-23.8 23.8z"/>
					<path id="&lt;Path&gt;" fill-rule="evenodd" class="s24" d="m307.4 162.8v-18.3l17.1 7.5z"/>
				</g>
				<path id="&lt;Path&gt;" fill-rule="evenodd" class="s27" d="m297.7 143.6c2.9-6.4 10-10.6 17-10"/>
			</g>
		</g>
	</g>
</svg>